<svg width="16" height="16" viewBox="0 0 16 16" fill="none" xmlns="http://www.w3.org/2000/svg">
  <style>
    .mark { fill: #0160d2; }
    @media (prefers-color-scheme: dark) {
      .mark { fill: #ffffff; }
    }
  </style>
  <path class="mark" d="M8.0332 0C12.4445 0.000150457 15.9999 3.57033 16 8C16 9.91733 15.3414 11.7024 14.1562 13.0908C12.7077 14.8759 10.5351 15.9999 8.0332 16C7.63835 16 7.24317 16.0006 6.91406 15.9346C3.02929 15.3395 0 12.0331 0 8C9.36005e-05 3.57023 3.62174 0 8.0332 0ZM7.37402 2.24805C4.47712 2.2483 2.17285 4.62879 2.17285 7.47168C2.17309 10.3144 4.47727 12.6941 7.37402 12.6943C10.271 12.6943 12.5759 10.3806 12.5762 7.47168C12.5762 4.56253 10.2053 2.24805 7.37402 2.24805ZM6.58789 3.76758C8.43139 3.50331 10.1429 4.82559 10.4062 6.67676C10.7354 8.59408 9.41875 10.3127 7.5752 10.5771C5.66573 10.8416 3.9538 9.51925 3.69043 7.66797C3.62467 7.33756 3.62464 7.00717 3.69043 6.67676C4.08548 7.2056 4.67814 7.47039 5.40234 7.4043C6.32416 7.27206 6.98269 6.41197 6.78516 5.48633C6.65344 4.75913 6.12672 4.2299 5.53418 4.09766C5.86332 3.96545 6.19293 3.83368 6.58789 3.76758Z"/>
</svg>
